<svg width="40" height="40" viewBox="0 0 40 40" fill="none" xmlns="http://www.w3.org/2000/svg">
<path d="M19.5278 0.0645752C8.7755 0.0645752 0.0585938 8.78125 0.0585938 19.5336C0.0585938 30.2864 8.7755 39.0024 19.5278 39.0024C30.2813 39.0024 38.9973 30.2864 38.9973 19.5336C38.9973 8.78194 30.2816 0.0645752 19.5278 0.0645752ZM28.4563 28.1445C28.1076 28.7164 27.359 28.8977 26.787 28.5467C22.2159 25.7545 16.4613 25.1221 9.68429 26.6705C9.03123 26.8193 8.38027 26.4101 8.23148 25.7568C8.08199 25.1035 8.48954 24.4526 9.14422 24.3038C16.5606 22.6094 22.9222 23.3389 28.0541 26.4752C28.626 26.8263 28.8074 27.5725 28.4563 28.1445ZM30.8393 22.8433C30.3999 23.5575 29.4653 23.783 28.7516 23.3436C23.5183 20.1269 15.5409 19.1953 9.35091 21.0743C8.54812 21.3168 7.70024 20.8643 7.45659 20.063C7.21481 19.2602 7.66746 18.4139 8.46885 18.1698C15.5395 16.0244 24.3296 17.0636 30.3394 20.7567C31.0532 21.1961 31.2787 22.1305 30.8393 22.8433ZM31.0439 17.3231C24.769 13.5961 14.4164 13.2534 8.42537 15.0717C7.46334 15.3634 6.44597 14.8204 6.15443 13.8583C5.86289 12.8958 6.40551 11.8791 7.36825 11.5867C14.2455 9.49894 25.6781 9.9023 32.9024 14.191C33.7696 14.7046 34.0532 15.8221 33.5394 16.6863C33.0279 17.5516 31.9064 17.8369 31.0439 17.3231Z" fill="#65D46E"/>
</svg>
